<?xml version="1.0" encoding="UTF-8" standalone="no"?>
<!DOCTYPE svg PUBLIC "-//W3C//DTD SVG 1.1//EN" "http://www.w3.org/Graphics/SVG/1.1/DTD/svg11.dtd">
<svg width="100%" height="100%" viewBox="0 0 456 168" version="1.1" xmlns="http://www.w3.org/2000/svg" xmlns:xlink="http://www.w3.org/1999/xlink" xml:space="preserve" style="fill-rule:evenodd;clip-rule:evenodd;stroke-linejoin:round;stroke-miterlimit:1.41421;"><g><path d="M99.25,156.951l0,-20.312l-6.078,0l0.484,-1.891l13.141,0l0,1.891l-5.594,0l0,20.031l-1.953,0.281Z" style="fill:#474647;fill-rule:nonzero;"/><path d="M107.425,151.201c0,1.177 0.398,2.159 1.195,2.946c0.797,0.786 1.805,1.179 3.024,1.179c1.219,0 2.2,-0.38 2.945,-1.14c0.745,-0.761 1.117,-1.755 1.117,-2.985c0,-1.218 -0.372,-2.211 -1.117,-2.976c-0.745,-0.766 -1.716,-1.149 -2.914,-1.149c-1.24,0 -2.258,0.391 -3.055,1.172c-0.797,0.782 -1.195,1.766 -1.195,2.953ZM115.706,155.076c-0.573,0.657 -1.218,1.151 -1.937,1.485c-0.719,0.333 -1.5,0.5 -2.344,0.5c-1.625,0 -3.008,-0.571 -4.148,-1.711c-1.141,-1.141 -1.711,-2.524 -1.711,-4.149c0,-1.614 0.573,-2.994 1.718,-4.14c1.146,-1.146 2.526,-1.719 4.141,-1.719c0.813,0 1.589,0.159 2.328,0.477c0.74,0.317 1.391,0.778 1.953,1.382l0,-2.015c0,-1.104 -0.278,-1.919 -0.836,-2.446c-0.557,-0.526 -1.419,-0.789 -2.586,-0.789c-0.687,0 -1.432,0.099 -2.234,0.297c-0.802,0.198 -1.719,0.516 -2.75,0.953l0.703,-2.078c0.781,-0.271 1.547,-0.474 2.297,-0.609c0.75,-0.136 1.474,-0.203 2.172,-0.203c1.739,0 3.013,0.406 3.82,1.219c0.807,0.812 1.211,2.093 1.211,3.843l0,11.297l-1.797,0.391l0,-1.985Z" style="fill:#474647;fill-rule:nonzero;"/><path d="M123.35,148.733l7.047,-8.375l1.5,0.89l-6.172,7.391l7.031,7.297l-1.375,1.047l-8.031,-8.25ZM121.553,156.983l0,-22.688l1.797,-0.219l0,22.594l-1.797,0.313Z" style="fill:#474647;fill-rule:nonzero;"/><path d="M135.431,150.076l10.532,-6.265c-0.448,-0.552 -1.014,-0.969 -1.696,-1.25c-0.682,-0.281 -1.461,-0.422 -2.336,-0.422c-1.833,0 -3.385,0.63 -4.656,1.891c-1.271,1.26 -1.906,2.807 -1.906,4.64c0,0.292 0.005,0.544 0.015,0.758c0.011,0.214 0.026,0.43 0.047,0.648ZM148.259,154.78c-1.052,0.781 -2.093,1.356 -3.125,1.726c-1.031,0.37 -2.099,0.555 -3.203,0.555c-2.427,0 -4.442,-0.8 -6.047,-2.399c-1.604,-1.599 -2.406,-3.586 -2.406,-5.961c0,-2.375 0.807,-4.354 2.422,-5.937c1.615,-1.583 3.625,-2.375 6.031,-2.375c1.521,0 2.852,0.328 3.992,0.984c1.141,0.657 2.029,1.604 2.665,2.844l-12.516,7.391c0.594,1.145 1.401,2.031 2.422,2.656c1.021,0.625 2.166,0.937 3.437,0.937c1.011,0 2.011,-0.211 3,-0.632c0.99,-0.422 2.099,-1.118 3.328,-2.086l0,2.297Z" style="fill:#474647;fill-rule:nonzero;"/><path d="M163.281,162.53l-1.765,-0.485l4.047,-8.094l-7.266,-13.062l1.75,-0.5l6.469,11.672l5.765,-11.672l1.719,0.469l-10.719,21.672Z" style="fill:#474647;fill-rule:nonzero;"/><path d="M176.628,148.701c0,1.823 0.649,3.378 1.945,4.664c1.297,1.287 2.857,1.93 4.68,1.93c1.823,0 3.378,-0.643 4.664,-1.93c1.287,-1.286 1.93,-2.841 1.93,-4.664c0,-1.823 -0.643,-3.377 -1.93,-4.664c-1.286,-1.286 -2.841,-1.929 -4.664,-1.929c-1.823,0 -3.383,0.643 -4.68,1.929c-1.296,1.287 -1.945,2.841 -1.945,4.664ZM174.8,148.701c0,-2.364 0.807,-4.341 2.422,-5.929c1.614,-1.589 3.625,-2.383 6.031,-2.383c2.396,0 4.399,0.794 6.008,2.383c1.609,1.588 2.414,3.565 2.414,5.929c0,2.375 -0.805,4.362 -2.414,5.961c-1.609,1.599 -3.612,2.399 -6.008,2.399c-2.396,0 -4.404,-0.802 -6.023,-2.406c-1.62,-1.605 -2.43,-3.589 -2.43,-5.954Z" style="fill:#474647;fill-rule:nonzero;"/><path d="M205.647,154.17c-0.667,0.979 -1.432,1.711 -2.297,2.195c-0.865,0.485 -1.833,0.727 -2.906,0.727c-1.771,0 -3.149,-0.539 -4.133,-1.617c-0.984,-1.078 -1.477,-2.591 -1.477,-4.539l0,-10.203l1.797,-0.219l0,9.531c0,1.854 0.352,3.24 1.055,4.156c0.703,0.917 1.758,1.375 3.164,1.375c1.292,0 2.414,-0.476 3.367,-1.429c0.953,-0.953 1.43,-2.107 1.43,-3.461l0,-9.953l1.797,-0.219l0,16.156l-1.797,0.219l0,-2.719Z" style="fill:#474647;fill-rule:nonzero;"/><path d="M211.556,156.889l0,-16.156l1.782,-0.219l0,3.453c0.645,-1.25 1.434,-2.187 2.367,-2.812c0.932,-0.625 2.013,-0.938 3.242,-0.938l0.437,0l-0.734,1.766c-1.812,0.177 -3.151,0.968 -4.016,2.375c-0.864,1.406 -1.296,3.505 -1.296,6.297l0,6.015l-1.782,0.219Z" style="fill:#474647;fill-rule:nonzero;"/><path d="M231.328,151.201c0,1.177 0.399,2.159 1.195,2.946c0.797,0.786 1.805,1.179 3.024,1.179c1.219,0 2.2,-0.38 2.945,-1.14c0.745,-0.761 1.117,-1.755 1.117,-2.985c0,-1.218 -0.372,-2.211 -1.117,-2.976c-0.745,-0.766 -1.716,-1.149 -2.914,-1.149c-1.239,0 -2.258,0.391 -3.055,1.172c-0.796,0.782 -1.195,1.766 -1.195,2.953ZM239.609,155.076c-0.573,0.657 -1.218,1.151 -1.937,1.485c-0.719,0.333 -1.5,0.5 -2.344,0.5c-1.625,0 -3.008,-0.571 -4.148,-1.711c-1.141,-1.141 -1.711,-2.524 -1.711,-4.149c0,-1.614 0.573,-2.994 1.718,-4.14c1.146,-1.146 2.527,-1.719 4.141,-1.719c0.813,0 1.589,0.159 2.328,0.477c0.74,0.317 1.391,0.778 1.953,1.382l0,-2.015c0,-1.104 -0.278,-1.919 -0.836,-2.446c-0.557,-0.526 -1.419,-0.789 -2.586,-0.789c-0.687,0 -1.432,0.099 -2.234,0.297c-0.802,0.198 -1.719,0.516 -2.75,0.953l0.703,-2.078c0.781,-0.271 1.547,-0.474 2.297,-0.609c0.75,-0.136 1.474,-0.203 2.172,-0.203c1.74,0 3.013,0.406 3.82,1.219c0.808,0.812 1.211,2.093 1.211,3.843l0,11.297l-1.797,0.391l0,-1.985Z" style="fill:#474647;fill-rule:nonzero;"/><path d="M245.503,156.889l0,-16.156l1.781,-0.219l0,3.453c0.646,-1.25 1.435,-2.187 2.368,-2.812c0.932,-0.625 2.013,-0.938 3.242,-0.938l0.437,0l-0.734,1.766c-1.813,0.177 -3.151,0.968 -4.016,2.375c-0.864,1.406 -1.297,3.505 -1.297,6.297l0,6.015l-1.781,0.219Z" style="fill:#474647;fill-rule:nonzero;"/><path d="M263.694,156.67c-0.313,0.073 -0.612,0.128 -0.899,0.164c-0.286,0.037 -0.554,0.055 -0.804,0.055c-1.605,0 -2.74,-0.448 -3.407,-1.344c-0.666,-0.896 -1,-2.536 -1,-4.922l0,-8.156l-2.312,0l0.515,-1.734l1.797,0l0,-3.782l1.782,-1.078l0,4.86l4.171,0l0,1.734l-4.171,0l0,8.375c0,1.719 0.2,2.859 0.601,3.422c0.401,0.562 1.107,0.844 2.117,0.844c0.219,0 0.461,-0.019 0.727,-0.055c0.266,-0.036 0.56,-0.086 0.883,-0.148l0,1.765Z" style="fill:#474647;fill-rule:nonzero;"/><path d="M276.528,156.889l0,-14.422l-2.312,0l0.515,-1.734l1.797,0c0,-0.084 -0.005,-0.214 -0.016,-0.391c-0.01,-0.177 -0.015,-0.302 -0.015,-0.375c0,-2.115 0.448,-3.661 1.344,-4.641c0.895,-0.979 2.302,-1.468 4.218,-1.468l0.547,0l0.516,1.625c-0.083,0 -0.195,-0.006 -0.336,-0.016c-0.141,-0.01 -0.242,-0.016 -0.305,-0.016c-1.51,0 -2.588,0.339 -3.234,1.016c-0.646,0.677 -0.969,1.813 -0.969,3.406c0,0.219 0.003,0.388 0.008,0.508c0.005,0.12 0.018,0.237 0.039,0.352l4.156,0l0,1.734l-4.156,0l0,14.203l-1.797,0.219Z" style="fill:#474647;fill-rule:nonzero;"/><path d="M295.109,154.17c-0.666,0.979 -1.432,1.711 -2.297,2.195c-0.864,0.485 -1.833,0.727 -2.906,0.727c-1.771,0 -3.148,-0.539 -4.133,-1.617c-0.984,-1.078 -1.476,-2.591 -1.476,-4.539l0,-10.203l1.797,-0.219l0,9.531c0,1.854 0.351,3.24 1.054,4.156c0.704,0.917 1.758,1.375 3.164,1.375c1.292,0 2.415,-0.476 3.368,-1.429c0.953,-0.953 1.429,-2.107 1.429,-3.461l0,-9.953l1.797,-0.219l0,16.156l-1.797,0.219l0,-2.719Z" style="fill:#474647;fill-rule:nonzero;"/><path d="M301.019,156.889l0,-16.156l1.781,-0.219l0,3.453c0.646,-1.25 1.435,-2.187 2.367,-2.812c0.932,-0.625 2.013,-0.938 3.242,-0.938l0.438,0l-0.735,1.766c-1.812,0.177 -3.151,0.968 -4.015,2.375c-0.865,1.406 -1.297,3.505 -1.297,6.297l0,6.015l-1.781,0.219Z" style="fill:#474647;fill-rule:nonzero;"/><path d="M319.209,156.67c-0.312,0.073 -0.612,0.128 -0.898,0.164c-0.287,0.037 -0.555,0.055 -0.805,0.055c-1.604,0 -2.739,-0.448 -3.406,-1.344c-0.667,-0.896 -1,-2.536 -1,-4.922l0,-8.156l-2.313,0l0.516,-1.734l1.797,0l0,-3.782l1.781,-1.078l0,4.86l4.172,0l0,1.734l-4.172,0l0,8.375c0,1.719 0.201,2.859 0.602,3.422c0.401,0.562 1.107,0.844 2.117,0.844c0.219,0 0.461,-0.019 0.727,-0.055c0.265,-0.036 0.559,-0.086 0.882,-0.148l0,1.765Z" style="fill:#474647;fill-rule:nonzero;"/><path d="M321.728,156.889l0,-22.594l1.797,-0.219l0,9.157c0.677,-0.98 1.448,-1.711 2.312,-2.196c0.865,-0.484 1.834,-0.726 2.907,-0.726c1.76,0 3.127,0.536 4.101,1.609c0.974,1.073 1.461,2.589 1.461,4.547l0,10.203l-1.75,0.219l0,-9.531c0,-1.844 -0.357,-3.227 -1.07,-4.149c-0.714,-0.922 -1.779,-1.383 -3.195,-1.383c-1.282,0 -2.396,0.477 -3.344,1.43c-0.948,0.953 -1.422,2.107 -1.422,3.461l0,9.953l-1.797,0.219Z" style="fill:#474647;fill-rule:nonzero;"/><path d="M339.466,150.076l10.531,-6.265c-0.448,-0.552 -1.013,-0.969 -1.695,-1.25c-0.683,-0.281 -1.461,-0.422 -2.336,-0.422c-1.834,0 -3.386,0.63 -4.657,1.891c-1.27,1.26 -1.906,2.807 -1.906,4.64c0,0.292 0.005,0.544 0.016,0.758c0.01,0.214 0.026,0.43 0.047,0.648ZM352.294,154.78c-1.052,0.781 -2.094,1.356 -3.125,1.726c-1.032,0.37 -2.099,0.555 -3.203,0.555c-2.427,0 -4.443,-0.8 -6.047,-2.399c-1.604,-1.599 -2.407,-3.586 -2.407,-5.961c0,-2.375 0.808,-4.354 2.422,-5.937c1.615,-1.583 3.625,-2.375 6.032,-2.375c1.52,0 2.851,0.328 3.992,0.984c1.14,0.657 2.028,1.604 2.664,2.844l-12.516,7.391c0.594,1.145 1.401,2.031 2.422,2.656c1.021,0.625 2.167,0.937 3.438,0.937c1.01,0 2.01,-0.211 3,-0.632c0.989,-0.422 2.099,-1.118 3.328,-2.086l0,2.297Z" style="fill:#474647;fill-rule:nonzero;"/><path d="M355.609,156.889l0,-16.156l1.782,-0.219l0,3.453c0.645,-1.25 1.435,-2.187 2.367,-2.812c0.932,-0.625 2.013,-0.938 3.242,-0.938l0.437,0l-0.734,1.766c-1.812,0.177 -3.151,0.968 -4.016,2.375c-0.864,1.406 -1.296,3.505 -1.296,6.297l0,6.015l-1.782,0.219Z" style="fill:#474647;fill-rule:nonzero;"/><path id="Studio" d="M72.531,97.833c3.281,5.261 7.123,9.219 11.524,11.875c4.401,2.656 9.362,3.984 14.882,3.984c7.084,0 12.93,-2.031 17.54,-6.093c4.609,-4.063 6.914,-9.193 6.914,-15.391c0,-10.312 -8.75,-18.099 -26.25,-23.359c-1.823,-0.521 -3.204,-0.938 -4.141,-1.25c-8.958,-2.709 -15.521,-6.393 -19.688,-11.055c-4.166,-4.661 -6.25,-10.638 -6.25,-17.93c0,-8.281 3.112,-15.286 9.336,-21.015c6.224,-5.729 14.05,-8.594 23.477,-8.594c5.781,0 10.99,1.016 15.625,3.047c4.635,2.031 9.297,5.338 13.984,9.922l-6.406,7.422c-4.219,-4.011 -8.164,-6.862 -11.836,-8.555c-3.672,-1.693 -7.669,-2.539 -11.992,-2.539c-6.146,0 -11.367,1.992 -15.664,5.976c-4.297,3.985 -6.445,8.816 -6.445,14.493c0,3.541 0.833,6.64 2.5,9.296c1.666,2.657 4.192,4.896 7.578,6.719c2.552,1.406 7.135,3.073 13.75,5c3.646,1.042 6.432,1.875 8.359,2.5c8.073,2.761 14.141,6.563 18.203,11.406c4.063,4.844 6.094,10.704 6.094,17.579c0,9.062 -3.281,16.64 -9.844,22.734c-6.562,6.094 -14.896,9.141 -25,9.141c-6.979,0 -13.424,-1.693 -19.336,-5.079c-5.911,-3.385 -10.846,-8.203 -14.804,-14.453l7.89,-5.781Z" style="fill:#474647;fill-rule:nonzero;"/><path d="M177.516,120.88c-1.563,0.365 -3.06,0.638 -4.493,0.82c-1.432,0.183 -2.773,0.274 -4.023,0.274c-8.021,0 -13.698,-2.24 -17.031,-6.719c-3.334,-4.479 -5,-12.682 -5,-24.609l0,-40.782l-11.563,0l2.578,-8.672l8.985,0l0,-18.906l8.906,-5.39l0,24.296l20.859,0l0,8.672l-20.859,0l0,41.875c0,8.594 1.003,14.297 3.008,17.11c2.005,2.812 5.534,4.218 10.586,4.218c1.093,0 2.304,-0.091 3.633,-0.273c1.328,-0.182 2.799,-0.43 4.414,-0.742l0,8.828Z" style="fill:#474647;fill-rule:nonzero;"/><path d="M235.703,108.38c-3.333,4.896 -7.161,8.555 -11.484,10.977c-4.323,2.421 -9.167,3.632 -14.532,3.632c-8.854,0 -15.742,-2.695 -20.664,-8.086c-4.921,-5.39 -7.382,-12.955 -7.382,-22.695l0,-51.016l8.984,-1.093l0,47.656c0,9.271 1.758,16.198 5.273,20.781c3.516,4.584 8.789,6.875 15.821,6.875c6.458,0 12.07,-2.383 16.836,-7.148c4.765,-4.766 7.148,-10.534 7.148,-17.305l0,-49.766l8.984,-1.093l0,80.781l-8.984,1.094l0,-13.594Z" style="fill:#474647;fill-rule:nonzero;"/><path d="M262.172,81.036c0,9.115 3.242,16.888 9.726,23.321c6.485,6.432 14.284,9.648 23.399,9.648c9.114,0 16.888,-3.216 23.32,-9.648c6.432,-6.433 9.649,-14.206 9.649,-23.321c0,-9.114 -3.217,-16.888 -9.649,-23.32c-6.432,-6.432 -14.206,-9.649 -23.32,-9.649c-9.115,0 -16.914,3.217 -23.399,9.649c-6.484,6.432 -9.726,14.206 -9.726,23.32ZM328.266,105.177c-4.167,5.729 -9.063,10.104 -14.688,13.125c-5.625,3.021 -11.719,4.531 -18.281,4.531c-11.979,0 -22.018,-4.01 -30.117,-12.031c-8.099,-8.021 -12.149,-17.943 -12.149,-29.766c0,-11.823 4.037,-21.705 12.11,-29.648c8.073,-7.943 18.125,-11.914 30.156,-11.914c6.875,0 13.112,1.51 18.711,4.531c5.599,3.021 10.351,7.422 14.258,13.203l0,-48.203l8.75,-1.094l0,112.969l-8.75,1.094l0,-16.797Z" style="fill:#474647;fill-rule:nonzero;"/><path d="M348.25,16.114l6.719,-8.203l6.875,7.344l-6.875,8.203l-6.719,-7.344ZM350.516,122.13l0,-80.938l9.14,-1.093l0,80.781l-9.14,1.25Z" style="fill:#474647;fill-rule:nonzero;"/><path d="M378.469,81.036c0,9.115 3.242,16.888 9.726,23.321c6.485,6.432 14.284,9.648 23.399,9.648c9.114,0 16.888,-3.216 23.32,-9.648c6.432,-6.433 9.648,-14.206 9.648,-23.321c0,-9.114 -3.216,-16.888 -9.648,-23.32c-6.432,-6.432 -14.206,-9.649 -23.32,-9.649c-9.115,0 -16.914,3.217 -23.399,9.649c-6.484,6.432 -9.726,14.206 -9.726,23.32ZM369.328,81.036c0,-11.823 4.037,-21.705 12.109,-29.648c8.073,-7.943 18.125,-11.914 30.157,-11.914c11.979,0 21.992,3.971 30.039,11.914c8.047,7.943 12.07,17.825 12.07,29.648c0,11.875 -4.023,21.81 -12.07,29.805c-8.047,7.995 -18.06,11.992 -30.039,11.992c-11.979,0 -22.018,-4.01 -30.117,-12.031c-8.099,-8.021 -12.149,-17.943 -12.149,-29.766Z" style="fill:#474647;fill-rule:nonzero;"/><path d="M59.215,3.003c1.217,0 2.324,0.554 3.32,1.661c0.996,1.106 1.494,2.352 1.494,3.735c0,2.38 -0.678,8.066 -2.033,17.058c-1.356,8.993 -2.67,16.532 -3.943,22.62c-1.384,6.53 -2.228,11.164 -2.532,13.904c-0.304,2.739 -0.457,7.069 -0.457,12.99c0,10.404 0.222,18.373 0.665,23.906c0.11,1.495 0.166,2.435 0.166,2.823c0.055,0.775 0.152,1.245 0.29,1.411c0.138,0.166 0.512,0.249 1.121,0.249c0.332,0.055 0.525,0.719 0.581,1.992c0.055,1.162 0.664,2.905 1.826,5.23c0.553,1.162 1.162,1.743 1.826,1.743c0.166,0 0.526,-0.083 1.079,-0.249c0.388,-0.166 0.803,-0.249 1.245,-0.249c1.107,0 2.103,0.678 2.989,2.033c0.885,1.356 1.328,2.892 1.328,4.607c0,1.937 -0.706,3.584 -2.117,4.939c-1.411,1.356 -3.113,2.034 -5.105,2.034c-2.49,0 -4.399,-1.439 -5.728,-4.316c-1.715,-3.653 -2.822,-6.392 -3.32,-8.218c-0.498,-1.826 -1.383,-6.364 -2.656,-13.613l-0.581,-3.155c-0.664,1.384 -1.467,3.348 -2.407,5.894c-2.767,7.913 -6.171,14.277 -10.21,19.092c-1.439,1.77 -2.518,2.905 -3.238,3.403c-0.719,0.498 -2.296,1.217 -4.731,2.158c-2.822,1.384 -5.036,2.075 -6.641,2.075c-5.257,0 -9.656,-3.071 -13.198,-9.214c-3.708,-6.308 -5.561,-15.218 -5.561,-26.728c0,-13.835 2.351,-25.76 7.055,-35.776c2.435,-5.313 5.977,-9.629 10.625,-12.95c2.878,-2.047 5.645,-3.071 8.301,-3.071c2.988,0 6.917,1.079 11.787,3.237c3.044,1.384 5.23,3.321 6.558,5.811c0.719,1.328 1.189,1.992 1.411,1.992c0.332,0 0.636,-0.539 0.913,-1.619c0.277,-1.079 0.387,-2.31 0.332,-3.693c-0.055,-6.862 1.162,-18.345 3.652,-34.449c0.498,-3.375 1.19,-5.769 2.075,-7.18c0.886,-1.411 2.159,-2.117 3.819,-2.117ZM47.926,63.599c-0.222,0 -0.498,0.028 -0.83,0.083c-0.609,0.166 -1.052,0.249 -1.328,0.249c-0.664,-0.055 -1.163,-0.249 -1.495,-0.581c-0.332,-0.332 -1.079,-1.577 -2.241,-3.735c-1.162,-1.992 -3.057,-3.722 -5.686,-5.188c-2.628,-1.467 -5.215,-2.2 -7.761,-2.2c-2.601,0 -5.16,1.024 -7.678,3.071c-2.518,2.048 -4.635,4.787 -6.35,8.218c-3.653,7.526 -5.479,16.159 -5.479,25.899c0,4.869 0.567,9.518 1.702,13.945c1.134,4.427 2.615,7.83 4.441,10.21c2.213,2.822 4.344,4.233 6.391,4.233c4.095,0 8.08,-2.504 11.953,-7.512c3.874,-5.008 7.222,-11.967 10.044,-20.876c0.775,-2.435 1.799,-6.904 3.072,-13.406c1.272,-6.502 1.881,-10.362 1.826,-11.58c0,-0.498 -0.194,-0.774 -0.581,-0.83Z" style="fill:#94285d;fill-rule:nonzero;"/></g></svg>