<?xml version="1.0" encoding="UTF-8" standalone="no"?>
<svg xmlns:dc="http://purl.org/dc/elements/1.1/" xmlns:cc="http://creativecommons.org/ns#" xmlns:rdf="http://www.w3.org/1999/02/22-rdf-syntax-ns#" xmlns:svg="http://www.w3.org/2000/svg" xmlns="http://www.w3.org/2000/svg" xmlns:sodipodi="http://sodipodi.sourceforge.net/DTD/sodipodi-0.dtd" xmlns:inkscape="http://www.inkscape.org/namespaces/inkscape" width="1000" height="328.40335" viewBox="-0.5 -0.5 1000 328.40335" enable-background="new -0.5 -0.5 120 40" id="svg2" version="1.1" inkscape:version="0.48.2 r9819" sodipodi:docname="lockup.svg">
  <metadata id="metadata10">
    <rdf:RDF>
      <cc:Work rdf:about="">
        <dc:format>image/svg+xml</dc:format>
        <dc:type rdf:resource="http://purl.org/dc/dcmitype/StillImage"/>
      </cc:Work>
    </rdf:RDF>
  </metadata>
  <defs id="defs8"/>
  <sodipodi:namedview pagecolor="#ffffff" bordercolor="#666666" borderopacity="1" objecttolerance="10" gridtolerance="10" guidetolerance="10" inkscape:pageopacity="0" inkscape:pageshadow="2" inkscape:window-width="1043" inkscape:window-height="935" id="namedview6" showgrid="false" fit-margin-left="0.5" fit-margin-bottom="0.5" fit-margin-top="0.5" fit-margin-right="0.5" inkscape:zoom="0.12054036" inkscape:cx="545.91084" inkscape:cy="-1014.5093" inkscape:window-x="865" inkscape:window-y="4" inkscape:window-maximized="0" inkscape:current-layer="svg2"/>
  <path d="M 415.55042,224.98487 492.78403,75.55462 c 2.51849,-5.87647 6.71597,-9.23445 13.43194,-9.23445 7.55546,0 13.43193,5.03697 13.43193,13.43193 v 180.4916 c 0,7.55546 -5.03698,14.27142 -13.43193,14.27142 -9.23446,0 -14.27143,-6.71596 -14.27143,-14.27142 V 134.31933 l -61.2832,117.52941 c -5.03697,7.55546 -10.91344,9.23445 -15.11092,9.23445 -3.35798,0 -10.07395,-0.83949 -15.11092,-9.23445 L 339.1563,134.31933 V 260.2437 c 0,7.55546 -5.03697,14.27142 -14.27143,14.27142 -8.39495,0 -13.43193,-6.71596 -13.43193,-14.27142 V 80.5916 c 0,-9.23446 5.87647,-13.43194 13.43193,-13.43194 6.71597,0 10.07395,3.35799 13.43194,9.23446 l 77.23361,148.59075 z m 238.41681,25.18488 c -43.65378,0 -79.7521,-35.25883 -79.7521,-79.7521 0,-43.65379 35.25882,-79.75211 79.7521,-79.75211 43.65378,0 79.7521,35.25883 79.7521,79.75211 0,44.49327 -36.09832,79.7521 -79.7521,79.7521 m 106.61596,-79.7521 c 0,-58.76471 -47.85126,-106.61597 -106.61596,-106.61597 -58.76471,0 -106.61597,47.85126 -106.61597,106.61597 0,58.7647 47.85126,106.61596 106.61597,106.61596 58.7647,0 106.61596,-47.85126 106.61596,-106.61596 m 131.80084,79.7521 c -43.65378,0 -79.7521,-35.25883 -79.7521,-79.7521 0,-43.65379 35.25883,-79.75211 79.7521,-79.75211 43.65379,0 79.7521,35.25883 79.7521,79.75211 0,44.49327 -36.09831,79.7521 -79.7521,79.7521 M 999,170.41765 C 999,111.65294 951.14874,63.80168 892.38403,63.80168 c -58.7647,0 -106.61596,47.85126 -106.61596,106.61597 0,58.7647 47.85126,106.61596 106.61596,106.61596 C 951.14874,277.03361 999,229.18235 999,170.41765 M 109.13445,298.8605 c 26.02437,0 49.53026,-11.75294 65.48068,-31.90084 10.91344,-14.27143 16.78991,-31.90084 16.78991,-50.36975 0,-5.87647 -0.83949,-10.91344 -1.67899,-16.78991 -3.35798,-18.46891 -17.62941,-50.36975 -41.97479,-93.18403 C 129.28235,73.87563 113.33193,50.36975 113.33193,50.36975 l -4.19748,-5.87647 -3.35798,5.03697 c 0,0 -15.95042,24.34538 -34.419327,56.24622 -25.184874,42.81428 -39.456303,74.71513 -41.97479,93.18403 -0.839496,5.87647 -1.678992,10.91345 -1.678992,16.78992 0,18.46891 5.876471,35.25882 16.789916,50.36975 15.110925,20.98739 38.616807,32.74033 64.641173,32.74033 m 0,28.54286 c -34.419324,0 -65.480668,-15.11092 -86.468063,-42.81429 C 7.5554622,265.28067 0,242.61428 0,218.26891 0,210.71344 0.8394958,203.15798 2.5184874,196.44201 6.7159664,172.09664 24.345378,132.64033 56.246218,78.07311 79.752101,37.77731 99.060504,7.55546 99.9,7.55546 101.57899,4.19748 104.09748,0 109.13445,0 c 5.03698,0 7.55547,4.19748 10.07395,7.55546 0,0 20.1479,30.22185 43.65378,70.51765 31.90085,54.56722 49.53026,94.02353 53.72774,118.3689 1.67899,6.71597 2.51848,14.27143 2.51848,21.8269 0,24.34537 -7.55546,47.01176 -22.66638,66.32016 -21.82689,26.86387 -53.72773,42.81429 -87.30757,42.81429" id="path4" inkscape:connector-curvature="0" style="fill:#00945e"/>
</svg>